<svg width="24" height="24" viewBox="0 0 24 24" fill="none" xmlns="http://www.w3.org/2000/svg">
<path d="M7.12142 15.6062C6.76994 15.9577 6.76994 16.5276 7.12142 16.879C7.47289 17.2305 8.04274 17.2305 8.39421 16.879L7.75781 16.2426L7.12142 15.6062ZM17.1431 7.75736C17.1431 7.26031 16.7402 6.85736 16.2431 6.85736L8.14309 6.85736C7.64604 6.85736 7.24309 7.26031 7.24309 7.75736C7.24309 8.25442 7.64604 8.65736 8.14309 8.65736H15.3431V15.8574C15.3431 16.3544 15.746 16.7574 16.2431 16.7574C16.7402 16.7574 17.1431 16.3544 17.1431 15.8574L17.1431 7.75736ZM7.75781 16.2426L8.39421 16.879L16.8795 8.39376L16.2431 7.75736L15.6067 7.12097L7.12142 15.6062L7.75781 16.2426Z" fill="#D4D4D4"/>
</svg>
