<svg width="16" height="17" viewBox="0 0 16 17" fill="none" xmlns="http://www.w3.org/2000/svg">
<path d="M3.12093 12.1058C2.76946 12.4573 2.76946 13.0271 3.12093 13.3786C3.4724 13.7301 4.04225 13.7301 4.39372 13.3786L3.12093 12.1058ZM13.1426 4.25691C13.1426 3.75985 12.7397 3.35691 12.2426 3.35691L4.14261 3.35691C3.64555 3.35691 3.24261 3.75985 3.24261 4.25691C3.24261 4.75396 3.64555 5.15691 4.14261 5.15691H11.3426V12.3569C11.3426 12.854 11.7455 13.2569 12.2426 13.2569C12.7397 13.2569 13.1426 12.854 13.1426 12.3569L13.1426 4.25691ZM3.75732 12.7422L4.39372 13.3786L12.879 4.8933L12.2426 4.25691L11.6062 3.62051L3.12093 12.1058L3.75732 12.7422Z" fill="#D4D4D4"/>
</svg>
