<svg width="246" height="309" viewBox="0 0 246 309" fill="none" xmlns="http://www.w3.org/2000/svg">
<path d="M26.8928 91.0703L26.9896 122.452C26.9896 127.701 25.8287 132.608 23.4103 137.287C20.9919 141.965 17.7028 145.731 13.5431 148.584C9.4802 151.323 6.19115 152.121 3.77273 150.866C1.35431 149.611 0.0967368 146.416 0.0967368 141.281L0 109.329L7.25526 104.422L7.35199 135.803C7.35199 138.884 7.93242 140.824 8.99652 141.509C10.0606 142.194 11.6084 141.851 13.5431 140.596C17.6061 137.857 19.6376 133.521 19.7343 127.701L19.6376 95.9772L26.8928 91.0703Z" fill="#D4D4D4"/>
<path d="M61.426 67.5664L61.5228 115.152L54.2675 120.059L40.1439 98.3773L40.2407 129.645L32.9854 134.552L32.8887 86.9658L40.0472 82.0589L54.2675 103.855L54.1708 72.4733L61.426 67.5664Z" fill="#D4D4D4"/>
<path d="M75.4545 57.9766L75.5512 105.562L68.296 110.469L68.1992 62.8835L75.4545 57.9766Z" fill="#D4D4D4"/>
<path d="M89.3861 48.5078L89.4829 88.2196L104.864 77.7211V85.595L82.2276 101L82.1309 53.4147L89.3861 48.5078Z" fill="#D4D4D4"/>
<path d="M126.144 23.4023L139.397 62.0871L131.658 67.3364L129.24 59.2342L116.568 67.9069L114.149 79.3184L106.41 84.5676L119.373 28.081L126.144 23.4023ZM118.502 58.5496L127.305 52.6156L122.855 37.7807L118.502 58.5496Z" fill="#D4D4D4"/>
<path d="M167.257 22.3751C168.321 23.5162 168.804 25.4561 168.804 28.0808C168.804 32.6453 167.74 36.8676 165.612 40.6334C163.484 44.3991 160.388 47.7084 156.422 50.5613L142.782 59.9187L142.686 12.333L154.971 4.00264C159.228 1.14978 162.42 0.00864068 164.645 0.693327C166.87 1.37801 167.934 3.88853 167.934 8.22487C167.934 10.5072 167.547 12.9036 166.58 15.3C165.709 17.6964 164.451 19.8645 162.904 21.6904C164.742 20.8916 166.193 21.2339 167.257 22.3751ZM160.098 38.4652C161.066 36.7535 161.549 34.8135 161.549 32.8736C161.549 28.5372 159.905 27.3961 156.519 29.6784L149.844 34.243V47.1379L156.035 42.9156C157.873 41.6604 159.131 40.1769 160.098 38.4652ZM149.844 15.3V27.282L155.165 23.6303C158.841 21.0057 160.679 17.8105 160.582 13.9306C160.582 11.7624 160.098 10.5072 159.228 10.1648C158.26 9.82248 156.809 10.393 154.874 11.7624L149.844 15.3Z" fill="#D4D4D4"/>
<path d="M52.7209 157.752C56.5903 160.376 58.4283 163.229 58.2349 166.424C58.0414 169.62 55.9132 172.587 51.7535 175.439C47.6906 178.178 43.3374 179.662 38.7908 179.89C34.2441 180.004 29.9877 178.863 26.215 176.352L2.80469 160.376L9.96321 155.469L33.18 171.217C35.5017 172.815 37.7267 173.499 39.8549 173.499C41.9831 173.499 44.0146 172.815 45.9493 171.445C50.0122 168.707 49.9155 165.854 45.6591 162.887L22.2488 146.911L29.504 142.004L52.7209 157.752Z" fill="#EDFAFF"/>
<path d="M98.9604 142.342L91.8018 147.249L54.6549 141.201L77.775 156.949L70.6165 161.856L35.4043 137.892L42.6596 132.985L79.8065 139.147L56.6864 123.399L63.8449 118.492L98.9604 142.342Z" fill="#EDFAFF"/>
<path d="M199.665 69.654C199.278 72.2786 197.053 75.0174 193.184 77.7561L179.641 87.1135L144.525 63.1495L156.714 54.8191C160.971 51.9663 164.937 50.2546 168.806 49.9122C172.676 49.5699 176.158 50.3687 179.254 52.5368C180.995 53.678 182.059 55.0474 182.446 56.5308C182.833 58.0143 182.64 59.4978 181.672 60.9813C183.897 60.0684 186.219 59.726 188.637 59.9543C191.056 60.1825 193.184 60.9813 195.215 62.3507C198.601 64.5189 200.052 67.0294 199.665 69.654ZM180.995 78.2126L187.186 73.9903C188.928 72.8492 189.798 71.5939 189.895 70.4528C189.992 69.1975 189.411 68.1705 187.96 67.1435C184.768 64.9753 181.479 64.9753 178.093 67.2576L171.515 71.8222L180.995 78.2126ZM166.388 68.2846L171.708 64.633C175.288 62.1225 175.578 59.8402 172.773 57.9002C171.225 56.7591 169.58 56.3026 167.936 56.5308C166.291 56.645 164.55 57.4438 162.518 58.8131L157.488 62.2366L166.388 68.2846Z" fill="#EDFAFF"/>
<path d="M168.709 94.5303L159.036 91.221L146.46 99.8936L151.297 106.512L143.655 111.762L121.502 78.8966L128.177 74.332L176.352 89.281L168.709 94.5303ZM142.494 94.6444L151.2 88.7104L133.691 82.7765L142.494 94.6444Z" fill="#EDFAFF"/>
<path d="M142.01 112.899L119.567 128.305L84.4512 104.341L91.6097 99.4336L120.921 119.404L136.205 108.905L142.01 112.899Z" fill="#EDFAFF"/>
<path d="M112.892 132.874L105.734 137.781L70.5215 113.817L77.7767 108.91L112.892 132.874Z" fill="#EDFAFF"/>
<path d="M65.7795 168.934L65.8763 200.315C65.8763 205.564 64.7154 210.471 62.297 215.15C59.8786 219.829 56.5896 223.594 52.4299 226.447C48.3669 229.186 45.0779 229.985 42.6595 228.73C40.241 227.474 38.9835 224.279 38.9835 219.144L38.8867 187.42L46.142 182.513L46.2387 213.895C46.2387 216.976 46.8191 218.916 47.8832 219.6C48.9473 220.285 50.4951 219.943 52.4299 218.687C56.4928 215.949 58.5243 211.612 58.621 205.793L58.5243 174.069L65.7795 168.934Z" fill="#D4D4D4"/>
<path d="M100.316 145.426L100.412 193.011L93.1572 198.033L79.0336 176.237V207.618L71.8751 212.525L71.6816 164.939L78.9369 159.918L93.1572 181.714L93.0605 150.333L100.316 145.426Z" fill="#D4D4D4"/>
<path d="M114.341 135.84L114.438 183.54L107.183 188.447L107.086 140.861L114.341 135.84Z" fill="#D4D4D4"/>
<path d="M128.271 126.367L128.368 166.079L143.749 155.695V163.568L121.112 178.974L121.016 131.274L128.271 126.367Z" fill="#D4D4D4"/>
<path d="M165.033 101.375L178.286 140.06L170.547 145.309L168.129 137.207L155.456 145.88L153.038 157.291L145.299 162.54L158.262 106.054L165.033 101.375ZM157.391 136.408L166.194 130.474L161.744 115.639L157.391 136.408Z" fill="#D4D4D4"/>
<path d="M206.048 100.234C207.112 101.376 207.595 103.316 207.595 105.94C207.595 110.505 206.531 114.727 204.403 118.493C202.275 122.259 199.179 125.568 195.213 128.421L181.573 137.778L181.477 90.1924L193.762 81.862C198.019 79.0092 201.211 77.868 203.436 78.5527C205.661 79.2374 206.725 81.7479 206.725 86.0842C206.725 88.3665 206.338 90.7629 205.371 93.1593C204.5 95.5557 203.242 97.7239 201.695 99.5497C203.629 98.8651 205.08 99.0933 206.048 100.234ZM198.986 116.325C199.953 114.613 200.437 112.673 200.437 110.733C200.437 106.397 198.792 105.255 195.407 107.538L188.732 112.102V124.997L194.923 120.775C196.664 119.52 198.019 118.15 198.986 116.325ZM188.732 93.1593V105.141L194.052 101.49C197.728 98.8651 199.566 95.6699 199.47 91.79C199.47 89.6218 198.986 88.3665 198.115 88.0242C197.148 87.6819 195.697 88.2524 193.762 89.6218L188.732 93.1593Z" fill="#D4D4D4"/>
<path d="M91.5119 235.689C95.3814 238.314 97.2194 241.167 97.0259 244.362C96.8324 247.557 94.7042 250.524 90.5445 253.377C86.4816 256.116 82.1284 257.599 77.5818 257.827C73.0352 257.941 68.7787 256.8 65.006 254.29L41.5957 238.314L48.7542 233.407L71.9711 249.155C74.2927 250.752 76.5177 251.437 78.6459 251.437C80.7741 251.437 82.8056 250.752 84.7403 249.383C88.8032 246.644 88.7065 243.791 84.4501 240.824L61.0398 224.848L68.2951 219.941L91.5119 235.689Z" fill="#EDFAFF"/>
<path d="M137.849 220.394L130.594 225.301L93.5436 219.138L116.664 234.886L109.408 239.793L74.293 215.943L81.5482 210.922L118.695 217.084L95.4783 201.337L102.734 196.43L137.849 220.394Z" fill="#EDFAFF"/>
<path d="M238.552 147.705C238.165 150.329 235.94 153.068 232.071 155.807L218.528 165.164L183.412 141.2L195.601 132.87C199.857 130.017 203.824 128.305 207.693 127.963C211.563 127.621 215.045 128.419 218.141 130.588C219.882 131.729 220.946 133.098 221.333 134.582C221.72 136.065 221.526 137.549 220.559 139.032C222.784 138.119 225.106 137.777 227.524 138.005C229.942 138.233 232.071 139.032 234.102 140.401C237.488 142.57 238.939 145.08 238.552 147.705ZM219.882 156.149L226.073 151.927C227.814 150.786 228.685 149.531 228.782 148.389C228.878 147.134 228.298 146.107 226.847 145.08C223.655 142.912 220.366 142.912 216.98 145.194L210.402 149.759L219.882 156.149ZM205.275 146.221L210.595 142.57C214.174 140.059 214.465 137.777 211.659 135.837C210.111 134.696 208.467 134.239 206.822 134.468C205.178 134.582 203.437 135.38 201.405 136.75L196.375 140.173L205.275 146.221Z" fill="#EDFAFF"/>
<path d="M207.596 172.581L197.923 169.272L185.347 177.944L190.184 184.563L182.541 189.812L160.389 156.947L167.064 152.383L215.238 167.332L207.596 172.581ZM181.381 172.581L190.087 166.647L172.577 160.713L181.381 172.581Z" fill="#EDFAFF"/>
<path d="M180.897 190.84L158.454 206.246L123.242 182.282L130.497 177.375L159.809 197.345L175.093 186.846L180.897 190.84Z" fill="#EDFAFF"/>
<path d="M151.779 210.808L144.524 215.715L109.408 191.865L116.663 186.844L151.779 210.808Z" fill="#EDFAFF"/>
<path d="M104.186 248.125L104.283 279.506C104.283 284.756 103.122 289.663 100.703 294.341C98.2848 299.02 94.9958 302.786 90.8361 305.639C86.7732 308.377 83.4841 309.176 81.0657 307.921C78.6473 306.666 77.3897 303.47 77.3897 298.335L77.293 266.612L84.5482 261.705L84.645 293.086C84.645 296.167 85.2254 298.107 86.2895 298.792C87.3536 299.476 88.9014 299.134 90.8361 297.879C94.8991 295.14 96.9305 290.804 97.0273 284.984L96.9305 253.26L104.186 248.125Z" fill="#D4D4D4"/>
<path d="M138.623 224.621L138.72 272.207L131.562 277.114L117.341 255.432L117.438 286.813L110.183 291.72L110.086 244.135L117.341 239.114L131.465 260.909V229.528L138.623 224.621Z" fill="#D4D4D4"/>
<path d="M152.65 215.031L152.747 262.731L145.588 267.638L145.395 220.052L152.65 215.031Z" fill="#D4D4D4"/>
<path d="M166.581 205.562L166.678 245.274L182.059 234.89V242.764L159.52 258.169L159.326 210.469L166.581 205.562Z" fill="#D4D4D4"/>
<path d="M203.437 180.57L216.69 219.255L208.951 224.504L206.533 216.402L193.86 225.075L191.442 236.486L183.703 241.736L196.666 185.249L203.437 180.57ZM195.795 215.603L204.598 209.669L200.148 194.835L195.795 215.603Z" fill="#D4D4D4"/>
<path d="M244.452 179.43C245.516 180.571 246 182.511 246 185.135C246 189.7 244.936 193.922 242.808 197.688C240.68 201.454 237.584 204.763 233.618 207.616L219.978 216.973L219.881 169.388L232.167 161.057C236.423 158.204 239.615 157.063 241.84 157.748C244.065 158.433 245.129 160.943 245.129 165.28C245.129 167.562 244.742 169.958 243.775 172.355C242.904 174.751 241.647 176.919 240.099 178.745C241.937 178.06 243.388 178.289 244.452 179.43ZM237.39 195.52C238.358 193.808 238.842 191.868 238.842 189.928C238.842 185.592 237.197 184.451 233.811 186.733L227.136 191.298V204.193L233.328 199.97C235.069 198.715 236.423 197.346 237.39 195.52ZM227.04 172.355V184.337L232.36 180.685C236.036 178.06 237.874 174.865 237.777 170.985C237.777 168.817 237.294 167.562 236.423 167.22C235.456 166.877 234.005 167.448 232.07 168.817L227.04 172.355Z" fill="#D4D4D4"/>
</svg>
