<svg width="17" height="16" viewBox="0 0 17 16" fill="none" xmlns="http://www.w3.org/2000/svg">
<path d="M4.42497 3.12044C4.0735 2.76897 3.50365 2.76897 3.15218 3.12044C2.80071 3.47191 2.80071 4.04176 3.15218 4.39323L4.42497 3.12044ZM12.2739 13.1421C12.7709 13.1421 13.1739 12.7392 13.1739 12.2421L13.1739 4.14212C13.1739 3.64506 12.7709 3.24212 12.2739 3.24212C11.7768 3.24212 11.3739 3.64506 11.3739 4.14212V11.3421H4.17386C3.6768 11.3421 3.27386 11.7451 3.27386 12.2421C3.27386 12.7392 3.6768 13.1421 4.17386 13.1421L12.2739 13.1421ZM3.78857 3.75684L3.15218 4.39323L11.6375 12.8785L12.2739 12.2421L12.9103 11.6057L4.42497 3.12044L3.78857 3.75684Z" fill="#D4D4D4"/>
</svg>
