<svg width="48" height="48" viewBox="0 0 48 48" fill="none" xmlns="http://www.w3.org/2000/svg">
<path fill-rule="evenodd" clip-rule="evenodd" d="M15 6H33.008C37.974 6 42 10.026 42 14.992V33.01C42 37.974 37.974 42 33.008 42H14.992C10.026 42 6 37.974 6 33.008V15C6 10.03 10.03 6 15 6V6Z" stroke="#D4D4D4" stroke-width="2" stroke-linecap="round" stroke-linejoin="round"/>
<path d="M15.9219 27.6172H25.3019" stroke="#D4D4D4" stroke-width="2" stroke-linecap="round" stroke-linejoin="round"/>
<path d="M20.6184 16.7422L14.8984 30.0022" stroke="#D4D4D4" stroke-width="2" stroke-linecap="round" stroke-linejoin="round"/>
<path d="M26.3211 30.0022L20.6211 16.7422" stroke="#D4D4D4" stroke-width="2" stroke-linecap="round" stroke-linejoin="round"/>
<path d="M31.8984 19.7984C31.8424 19.7984 31.7984 19.8424 31.7984 19.8984C31.7984 19.9544 31.8424 19.9984 31.8984 19.9984C31.9544 19.9984 31.9984 19.9544 31.9984 19.8984C31.9984 19.8424 31.9544 19.7984 31.8984 19.7984" stroke="#D4D4D4" stroke-width="2" stroke-linecap="round" stroke-linejoin="round"/>
<path d="M31.8984 25V30" stroke="#D4D4D4" stroke-width="2" stroke-linecap="round" stroke-linejoin="round"/>
</svg>
