<svg xmlns="http://www.w3.org/2000/svg" width="17" height="16" viewBox="0 0 17 16" fill="none">
<path d="M3.15218 11.6058C2.80071 11.9573 2.80071 12.5271 3.15218 12.8786C3.50365 13.2301 4.0735 13.2301 4.42497 12.8786L3.15218 11.6058ZM13.1739 3.75694C13.1739 3.25988 12.7709 2.85694 12.2739 2.85694L4.17386 2.85694C3.6768 2.85694 3.27386 3.25988 3.27386 3.75694C3.27386 4.25399 3.6768 4.65694 4.17386 4.65694H11.3739V11.8569C11.3739 12.354 11.7768 12.7569 12.2739 12.7569C12.7709 12.7569 13.1739 12.354 13.1739 11.8569L13.1739 3.75694ZM3.78857 12.2422L4.42497 12.8786L12.9103 4.39333L12.2739 3.75694L11.6375 3.12054L3.15218 11.6058L3.78857 12.2422Z" fill="#D4D4D4"/>
</svg>