<svg width="25" height="25" viewBox="0 0 25 25" fill="none" xmlns="http://www.w3.org/2000/svg">
<path d="M10.0039 13.0054L10.9573 13.9588C11.7078 14.7093 12.7256 15.1309 13.787 15.1309C14.8483 15.1309 15.8662 14.7093 16.6167 13.9588L19.6489 10.9265C21.4619 9.1134 21.4619 6.17394 19.6489 4.3608V4.3608C17.8358 2.54786 14.8963 2.54786 13.0832 4.3608L12.1958 5.24917" stroke="#D4D4D4" stroke-width="1.5" stroke-linecap="round" stroke-linejoin="round"/>
<path d="M14.0057 10.0042L13.0523 9.0508C12.3018 8.30029 11.284 7.87866 10.2226 7.87866C9.16128 7.87866 8.1434 8.30029 7.39294 9.0508L4.36068 12.0831C2.54774 13.8962 2.54774 16.8357 4.36068 18.6488V18.6488C6.17381 20.4617 9.11328 20.4617 10.9264 18.6488L11.8138 17.7604" stroke="#D4D4D4" stroke-width="1.5" stroke-linecap="round" stroke-linejoin="round"/>
</svg>
