<svg width="20" height="20" viewBox="0 0 20 20" fill="none" xmlns="http://www.w3.org/2000/svg">
<path fill-rule="evenodd" clip-rule="evenodd" d="M11.55 13.75H13.9165C14.161 13.75 14.3696 13.5733 14.4097 13.3322L14.7431 11.3322C14.7672 11.1872 14.7264 11.039 14.6314 10.9268C14.5364 10.8147 14.3969 10.75 14.2499 10.75H11.378V8.75C11.378 8.19772 11.8257 7.75 12.378 7.75H13.878C14.1541 7.75 14.378 7.52614 14.378 7.25V5.25C14.378 4.97386 14.1541 4.75 13.878 4.75H12.05C9.84086 4.75 8.05 6.54086 8.05 8.75V10.75H5.75C5.47386 10.75 5.25 10.9739 5.25 11.25V13.25C5.25 13.5261 5.47386 13.75 5.75 13.75H8.05V18.75H4.75C2.54086 18.75 0.75 16.9591 0.75 14.75V4.75C0.75 2.54086 2.54086 0.75 4.75 0.75H14.75C16.9591 0.75 18.75 2.54086 18.75 4.75V14.75C18.75 16.9591 16.9591 18.75 14.75 18.75H11.55V13.75Z" stroke="#D4D4D4" stroke-width="1.5" stroke-linecap="round" stroke-linejoin="round"/>
</svg>
