<svg width="48" height="48" viewBox="0 0 48 48" fill="none" xmlns="http://www.w3.org/2000/svg">
<path fill-rule="evenodd" clip-rule="evenodd" d="M24.5 20.832H20.834C18.808 20.832 17.168 19.19 17.168 17.166V17.166C17.168 15.14 18.81 13.5 20.834 13.5H24.5V20.832Z" stroke="#D4D4D4" stroke-width="2" stroke-linecap="round" stroke-linejoin="round"/>
<path fill-rule="evenodd" clip-rule="evenodd" d="M24.5 20.8359H20.834C18.808 20.8359 17.168 22.4779 17.168 24.5019V24.5019C17.168 26.5279 18.81 28.1679 20.834 28.1679H24.5V20.8359Z" stroke="#D4D4D4" stroke-width="2" stroke-linecap="round" stroke-linejoin="round"/>
<path fill-rule="evenodd" clip-rule="evenodd" d="M24.5 28.1641H20.834C18.808 28.1641 17.168 29.8061 17.168 31.8301V31.8301C17.168 33.8561 18.81 35.4961 20.834 35.4961V35.4961C22.86 35.4961 24.5 33.8541 24.5 31.8301V28.1641V28.1641Z" stroke="#D4D4D4" stroke-width="2" stroke-linecap="round" stroke-linejoin="round"/>
<path d="M30.7582 21.9097C32.1899 23.3413 32.1899 25.6625 30.7582 27.0942C29.3266 28.5258 27.0054 28.5258 25.5737 27.0942C24.1421 25.6625 24.1421 23.3413 25.5737 21.9097C27.0054 20.478 29.3266 20.478 30.7582 21.9097" stroke="#D4D4D4" stroke-width="2" stroke-linecap="round" stroke-linejoin="round"/>
<path fill-rule="evenodd" clip-rule="evenodd" d="M28.166 20.834H24.5V13.5H28.166C30.192 13.5 31.832 15.142 31.832 17.166V17.166C31.834 19.192 30.192 20.834 28.166 20.834Z" stroke="#D4D4D4" stroke-width="2" stroke-linecap="round" stroke-linejoin="round"/>
<path fill-rule="evenodd" clip-rule="evenodd" d="M15 6H33.008C37.974 6 42 10.026 42 14.992V33.01C42 37.974 37.974 42 33.008 42H14.992C10.026 42 6 37.974 6 33.008V15C6 10.03 10.03 6 15 6V6Z" stroke="#D4D4D4" stroke-width="2" stroke-linecap="round" stroke-linejoin="round"/>
</svg>
