<svg width="24" height="24" viewBox="0 0 24 24" fill="none" xmlns="http://www.w3.org/2000/svg">
<path fill-rule="evenodd" clip-rule="evenodd" d="M7.5 3H16.504C18.987 3 21 5.013 21 7.496V16.505C21 18.987 18.987 21 16.504 21H7.496C5.013 21 3 18.987 3 16.504V7.5C3 5.015 5.015 3 7.5 3V3Z" stroke="#D4D4D4" stroke-width="1.5" stroke-linecap="round" stroke-linejoin="round"/>
<path d="M8.12 11.1001V16.5001" stroke="#D4D4D4" stroke-width="1.5" stroke-linecap="round" stroke-linejoin="round"/>
<path d="M11.719 16.5001V13.3501C11.719 12.1071 12.726 11.1001 13.969 11.1001V11.1001C15.212 11.1001 16.219 12.1071 16.219 13.3501V16.5001" stroke="#D4D4D4" stroke-width="1.5" stroke-linecap="round" stroke-linejoin="round"/>
<path d="M8.11802 7.83799C7.99402 7.83799 7.89302 7.93899 7.89402 8.06299C7.89402 8.18699 7.99502 8.28799 8.11902 8.28799C8.24302 8.28799 8.34402 8.18699 8.34402 8.06299C8.34402 7.93799 8.24302 7.83799 8.11802 7.83799" stroke="#D4D4D4" stroke-width="1.5" stroke-linecap="round" stroke-linejoin="round"/>
</svg>
