<svg width="68" height="15" viewBox="0 0 68 15" fill="none" xmlns="http://www.w3.org/2000/svg">
<path d="M9.77597 8.30414C9.77597 9.26414 9.59464 10.0961 9.23197 10.8001C8.8693 11.5041 8.31997 12.0481 7.58397 12.4321C6.85864 12.8161 5.94664 13.0081 4.84797 13.0081C3.2693 13.0081 2.06397 12.6081 1.23197 11.8081C0.410637 10.9975 -2.96831e-05 9.85081 -2.96831e-05 8.36814V1.42414H3.10397V8.12814C3.10397 8.93881 3.2533 9.52548 3.55197 9.88814C3.8613 10.2508 4.3093 10.4321 4.89597 10.4321C5.32264 10.4321 5.66397 10.3521 5.91997 10.1921C6.18664 10.0321 6.37864 9.78148 6.49597 9.44014C6.62397 9.09881 6.68797 8.65614 6.68797 8.11214V1.42414H9.77597V8.30414ZM17.5333 3.84014C18.4507 3.84014 19.1973 4.09614 19.7733 4.60814C20.3493 5.12014 20.6373 5.94681 20.6373 7.08814V12.8481H17.5813V8.01614C17.5813 7.42948 17.496 6.98681 17.3253 6.68814C17.1547 6.38948 16.8827 6.24014 16.5093 6.24014C15.9333 6.24014 15.544 6.47481 15.3413 6.94414C15.1493 7.41348 15.0533 8.09081 15.0533 8.97614V12.8481H11.9973V4.00014H14.3013L14.7173 5.16814H14.8293C15.0213 4.89081 15.2453 4.65614 15.5013 4.46414C15.768 4.26148 16.0667 4.10681 16.3973 4.00014C16.7387 3.89348 17.1173 3.84014 17.5333 3.84014ZM25.7881 4.00014V12.8481H22.7321V4.00014H25.7881ZM24.2681 0.432144C24.7054 0.432144 25.0841 0.522811 25.4041 0.704144C25.7348 0.885477 25.9001 1.24814 25.9001 1.79214C25.9001 2.31481 25.7348 2.67214 25.4041 2.86414C25.0841 3.04548 24.7054 3.13614 24.2681 3.13614C23.8201 3.13614 23.4361 3.04548 23.1161 2.86414C22.8068 2.67214 22.6521 2.31481 22.6521 1.79214C22.6521 1.24814 22.8068 0.885477 23.1161 0.704144C23.4361 0.522811 23.8201 0.432144 24.2681 0.432144ZM30.9752 12.8481H27.9192V0.688144H30.9752V12.8481ZM37.4111 3.84014C38.5311 3.84014 39.4058 4.11748 40.0351 4.67214C40.6644 5.22681 40.9791 6.01614 40.9791 7.04014V12.8481H38.8671L38.2751 11.6801H38.2111C37.9658 11.9895 37.7098 12.2455 37.4431 12.4481C37.1871 12.6401 36.8884 12.7788 36.5471 12.8641C36.2058 12.9601 35.7898 13.0081 35.2991 13.0081C34.7871 13.0081 34.3284 12.9068 33.9231 12.7041C33.5178 12.4908 33.1978 12.1761 32.9631 11.7601C32.7284 11.3335 32.6111 10.7948 32.6111 10.1441C32.6111 9.19481 32.9364 8.49081 33.5871 8.03214C34.2484 7.57348 35.2031 7.31748 36.4511 7.26414L37.9231 7.21614V7.08814C37.9231 6.69348 37.8271 6.41614 37.6351 6.25614C37.4431 6.08548 37.1818 6.00014 36.8511 6.00014C36.4991 6.00014 36.1098 6.06414 35.6831 6.19214C35.2564 6.30948 34.8244 6.46414 34.3871 6.65614L33.5071 4.64014C34.0191 4.37348 34.5951 4.17614 35.2351 4.04814C35.8858 3.90948 36.6111 3.84014 37.4111 3.84014ZM37.2351 8.92814C36.6804 8.94948 36.2858 9.05081 36.0511 9.23214C35.8271 9.40281 35.7151 9.64814 35.7151 9.96814C35.7151 10.2668 35.7951 10.4908 35.9551 10.6401C36.1151 10.7788 36.3284 10.8481 36.5951 10.8481C36.9684 10.8481 37.2831 10.7308 37.5391 10.4961C37.8058 10.2615 37.9391 9.95748 37.9391 9.58414V8.89614L37.2351 8.92814ZM46.1158 3.44014C46.1158 3.74948 46.1052 4.04814 46.0838 4.33614C46.0625 4.62414 46.0358 4.89081 46.0038 5.13614H46.1158C46.3398 4.77348 46.6385 4.46948 47.0118 4.22414C47.3852 3.96814 47.8705 3.84014 48.4678 3.84014C49.3852 3.84014 50.1372 4.22948 50.7238 5.00814C51.3105 5.78681 51.6038 6.91748 51.6038 8.40014C51.6038 9.40281 51.4652 10.2508 51.1878 10.9441C50.9212 11.6268 50.5425 12.1441 50.0518 12.4961C49.5718 12.8375 49.0118 13.0081 48.3718 13.0081C47.7532 13.0081 47.2785 12.9015 46.9478 12.6881C46.6172 12.4641 46.3398 12.2295 46.1158 11.9841H45.9238L45.4438 12.8481H43.0598V0.688144H46.1158V3.44014ZM47.3478 6.24014C47.0705 6.24014 46.8358 6.30948 46.6438 6.44814C46.4625 6.57614 46.3292 6.77348 46.2438 7.04014C46.1585 7.30681 46.1158 7.65348 46.1158 8.08014V8.51214C46.1158 9.19481 46.2065 9.70681 46.3878 10.0481C46.5798 10.3788 46.9105 10.5441 47.3798 10.5441C47.7425 10.5441 48.0198 10.3628 48.2118 10.0001C48.4038 9.62681 48.4998 9.08281 48.4998 8.36814C48.4998 7.66414 48.4038 7.13614 48.2118 6.78414C48.0305 6.42148 47.7425 6.24014 47.3478 6.24014ZM60.6211 9.95214C59.8104 9.95214 59.1651 9.73348 58.6851 9.29614C58.2051 8.85881 57.9651 8.17081 57.9651 7.23214C57.9651 6.27214 58.2318 5.57348 58.7651 5.13614C59.2984 4.68814 59.9651 4.46414 60.7651 4.46414C61.0958 4.46414 61.3998 4.50148 61.6771 4.57614C61.9651 4.65081 62.2371 4.75214 62.4931 4.88014L61.9651 6.22414C61.7411 6.11748 61.5331 6.03748 61.3411 5.98414C61.1491 5.93081 60.9571 5.90414 60.7651 5.90414C60.4878 5.90414 60.2638 6.01614 60.0931 6.24014C59.9224 6.45348 59.8371 6.78414 59.8371 7.23214C59.8371 7.69081 59.9224 8.02148 60.0931 8.22414C60.2744 8.41614 60.4984 8.51214 60.7651 8.51214C61.0318 8.51214 61.2984 8.46948 61.5651 8.38414C61.8318 8.28814 62.0878 8.17081 62.3331 8.03214V9.48814C62.0984 9.63748 61.8424 9.75481 61.5651 9.84014C61.2984 9.91481 60.9838 9.95214 60.6211 9.95214ZM60.2851 14.2721C59.2931 14.2721 58.3651 14.0855 57.5011 13.7121C56.6478 13.3495 55.8904 12.8428 55.2291 12.1921C54.5784 11.5308 54.0664 10.7735 53.6931 9.92014C53.3304 9.05614 53.1491 8.12814 53.1491 7.13614C53.1491 6.14414 53.3304 5.22148 53.6931 4.36814C54.0664 3.50414 54.5784 2.74681 55.2291 2.09614C55.8904 1.43481 56.6478 0.922811 57.5011 0.560144C58.3651 0.186811 59.2931 0.000144005 60.2851 0.000144005C61.2771 0.000144005 62.1998 0.186811 63.0531 0.560144C63.9171 0.922811 64.6744 1.43481 65.3251 2.09614C65.9864 2.74681 66.4984 3.50414 66.8611 4.36814C67.2344 5.22148 67.4211 6.14414 67.4211 7.13614C67.4211 8.12814 67.2344 9.05614 66.8611 9.92014C66.4984 10.7735 65.9864 11.5308 65.3251 12.1921C64.6744 12.8428 63.9171 13.3495 63.0531 13.7121C62.1998 14.0855 61.2771 14.2721 60.2851 14.2721ZM60.2851 12.5121C61.0318 12.5121 61.7304 12.3735 62.3811 12.0961C63.0318 11.8188 63.6024 11.4348 64.0931 10.9441C64.5838 10.4535 64.9678 9.88281 65.2451 9.23214C65.5224 8.58148 65.6611 7.88281 65.6611 7.13614C65.6611 6.38948 65.5224 5.69081 65.2451 5.04014C64.9678 4.38948 64.5838 3.81881 64.0931 3.32814C63.6024 2.83748 63.0318 2.45348 62.3811 2.17614C61.7304 1.89881 61.0318 1.76014 60.2851 1.76014C59.5384 1.76014 58.8398 1.89881 58.1891 2.17614C57.5384 2.45348 56.9678 2.83748 56.4771 3.32814C55.9864 3.81881 55.6024 4.38948 55.3251 5.04014C55.0478 5.69081 54.9091 6.38948 54.9091 7.13614C54.9091 7.88281 55.0478 8.58148 55.3251 9.23214C55.6024 9.88281 55.9864 10.4535 56.4771 10.9441C56.9678 11.4348 57.5384 11.8188 58.1891 12.0961C58.8398 12.3735 59.5384 12.5121 60.2851 12.5121Z" fill="#D4D4D4"/>
</svg>
